<?xml version="1.0" encoding="utf-8"?>
<!-- Generator: Adobe Illustrator 24.3.0, SVG Export Plug-In . SVG Version: 6.00 Build 0)  -->
<svg version="1.1" id="レイヤー_1" xmlns="http://www.w3.org/2000/svg" xmlns:xlink="http://www.w3.org/1999/xlink" x="0px"
	 y="0px" viewBox="0 0 24 24" style="enable-background:new 0 0 24 24;" xml:space="preserve">
<style type="text/css">
	.st0{fill:#828282;}
	.st1{fill:none;}
	.st2{fill:#FFFFFF;}
</style>
<g>
	<path class="st0" d="M23.4,20.7c-0.6,1.4-1.8,2.4-3.2,2.9c-0.8,0.2-1.7,0.3-2.9,0.3H6.6c-1.2,0-2.1-0.1-2.9-0.3
		c-1.4-0.4-2.6-1.5-3.2-2.9c-0.5-1.2-0.5-2.5-0.5-3.4V6.6c0-0.8,0-2.2,0.5-3.4c0.6-1.4,1.8-2.4,3.2-2.9c0.8-0.2,1.7-0.3,2.9-0.3
		h10.7c1.2,0,2.1,0.1,2.9,0.3c1.4,0.4,2.6,1.5,3.2,2.9c0.5,1.2,0.5,2.5,0.5,3.4v10.7C23.9,18.2,23.9,19.5,23.4,20.7z"/>
	<path class="st1" d="M23.4,20.7c-0.6,1.4-1.8,2.4-3.2,2.9c-0.8,0.2-1.7,0.3-2.9,0.3H6.6c-1.2,0-2.1-0.1-2.9-0.3
		c-1.4-0.4-2.6-1.5-3.2-2.9c-0.5-1.2-0.5-2.5-0.5-3.4V6.6c0-0.8,0-2.2,0.5-3.4c0.6-1.4,1.8-2.4,3.2-2.9c0.8-0.2,1.7-0.3,2.9-0.3
		h10.7c1.2,0,2.1,0.1,2.9,0.3c1.4,0.4,2.6,1.5,3.2,2.9c0.5,1.2,0.5,2.5,0.5,3.4v10.7C23.9,18.2,23.9,19.5,23.4,20.7z"/>
	<path class="st2" d="M13.7,13.8c-0.4-0.4-1-0.6-1.7-0.6c-0.7,0-1.4,0.2-1.7,0.6C10.1,14,10,14.2,10,14.5c-0.1,0.6,0,1,0,1.8
		c0.1,0.7,0.2,1.7,0.3,2.7c0.1,0.7,0.2,1.1,0.3,1.4c0.1,0.4,0.6,0.8,1.4,0.8c0.8,0,1.3-0.4,1.4-0.8c0.1-0.3,0.2-0.7,0.3-1.4
		c0.2-1,0.3-2,0.3-2.7c0.1-0.8,0.1-1.2,0-1.8C14,14.2,13.9,14,13.7,13.8z M10.1,10.4c0,1.1,0.9,1.9,1.9,1.9s1.9-0.9,1.9-1.9
		c0-1.1-0.9-1.9-1.9-1.9S10.1,9.3,10.1,10.4z M12,2.7c-4.6,0-8.3,3.7-8.3,8.3c0,3.7,2.3,6.8,5.6,8c0.1,0,0.1,0,0.1-0.1
		c0,0,0,0,0-0.1c0-0.3-0.1-0.6-0.1-0.9c0-0.1-0.1-0.2-0.2-0.2C6.4,16.6,4.7,14,4.7,11c0-4,3.3-7.2,7.2-7.2c4.1,0,7.4,3.3,7.4,7.3
		c0,2.9-1.7,5.5-4.4,6.7c-0.1,0-0.2,0.1-0.2,0.2c0,0.3-0.1,0.6-0.1,0.9c0,0.1,0,0.1,0.1,0.1c0,0,0,0,0.1,0c3.3-1.1,5.6-4.3,5.6-7.9
		C20.4,6.5,16.6,2.7,12,2.7z M11.8,6.6c2.5-0.1,4.6,1.9,4.7,4.4c0,0.1,0,0.1,0,0.2c0,1.3-0.5,2.4-1.4,3.3C15,14.5,15,14.6,15,14.7
		c0,0.3,0,0.6,0,1c0,0.1,0,0.1,0.1,0.1c0,0,0,0,0.1,0c1.5-1,2.4-2.8,2.5-4.6c0-3.1-2.5-5.6-5.6-5.6c-0.1,0-0.1,0-0.2,0
		c-3,0.1-5.3,2.6-5.4,5.5c0,1.9,0.9,3.6,2.5,4.7c0,0,0.1,0,0.2,0c0,0,0,0,0-0.1c0-0.3,0-0.6,0-1c0-0.1,0-0.2-0.1-0.3
		C8,13.5,7.4,12.3,7.5,11C7.5,8.6,9.4,6.7,11.8,6.6z"/>
</g>
</svg>
