<?xml version="1.0" encoding="utf-8"?>
<!-- Generator: Adobe Illustrator 24.3.0, SVG Export Plug-In . SVG Version: 6.00 Build 0)  -->
<svg version="1.1" id="レイヤー_1" xmlns="http://www.w3.org/2000/svg" xmlns:xlink="http://www.w3.org/1999/xlink" x="0px"
	 y="0px" viewBox="0 0 24 24" style="enable-background:new 0 0 24 24;" xml:space="preserve">
<style type="text/css">
	.st0{fill:#FAB908;}
	.st1{fill:#0066D9;}
	.st2{fill:#4285F4;}
	.st3{fill:#EA4335;}
	.st4{fill:#34A853;}
</style>
<g id="Podcast_icon_final-3" transform="matrix(17.436483,0,0,17.436483,429.20315,-2343.9177)">
	<g id="_logo_Podcasts_192px-8">
		<polygon id="Shape-8" class="st0" points="-24,135.4 -23.8,135.4 -23.8,135.2 -23.8,135.1 -23.8,134.9 -24,134.9 -24,135.1 
			-24,135.2 		"/>
		<ellipse id="Oval-0" class="st1" cx="-24.5" cy="135.1" rx="0.1" ry="0.1"/>
		<ellipse id="ellipse9-9" class="st1" cx="-24.5" cy="135.2" rx="0.1" ry="0.1"/>
		<rect id="Rectangle-path-8" x="-24.6" y="135.1" class="st1" width="0.2" height="0.1"/>
		<ellipse id="ellipse12-0" class="st2" cx="-23.3" cy="135.2" rx="0.1" ry="0.1"/>
		<ellipse id="ellipse14-0" class="st2" cx="-23.3" cy="135.1" rx="0.1" ry="0.1"/>
		<rect id="rect16-5" x="-23.4" y="135.1" class="st2" width="0.2" height="0.1"/>
		<ellipse id="ellipse18-2" class="st3" cx="-24.2" cy="135.3" rx="0.1" ry="0.1"/>
		<ellipse id="ellipse20-8" class="st3" cx="-24.2" cy="135.4" rx="0.1" ry="0.1"/>
		<rect id="rect22-6" x="-24.3" y="135.3" class="st3" width="0.2" height="0.1"/>
		<ellipse id="ellipse24-4" class="st3" cx="-24.2" cy="134.8" rx="0.1" ry="0.1"/>
		<ellipse id="ellipse26-3" class="st3" cx="-24.2" cy="135.1" rx="0.1" ry="0.1"/>
		<rect id="rect28-2" x="-24.3" y="134.8" class="st3" width="0.2" height="0.3"/>
		<ellipse id="ellipse30-7" class="st4" cx="-23.6" cy="134.9" rx="0.1" ry="0.1"/>
		<ellipse id="ellipse32-9" class="st4" cx="-23.6" cy="134.8" rx="0.1" ry="0.1"/>
		<rect id="rect34-0" x="-23.7" y="134.8" class="st4" width="0.2" height="0.1"/>
		<ellipse id="ellipse36-4" class="st0" cx="-23.9" cy="134.6" rx="0.1" ry="0.1"/>
		<ellipse id="ellipse38-1" class="st0" cx="-23.9" cy="134.5" rx="0.1" ry="0.1"/>
		<rect id="rect40-9" x="-24" y="134.5" class="st0" width="0.2" height="0.1"/>
		<ellipse id="ellipse42-1" class="st0" cx="-23.9" cy="135.7" rx="0.1" ry="0.1"/>
		<ellipse id="ellipse44-5" class="st0" cx="-23.9" cy="135.6" rx="0.1" ry="0.1"/>
		<rect id="rect46-3" x="-24" y="135.6" class="st0" width="0.2" height="0.1"/>
		<ellipse id="ellipse48-2" class="st4" cx="-23.6" cy="135.4" rx="0.1" ry="0.1"/>
		<ellipse id="ellipse50-8" class="st4" cx="-23.6" cy="135.1" rx="0.1" ry="0.1"/>
		<rect id="rect52-3" x="-23.7" y="135.1" class="st4" width="0.2" height="0.3"/>
		<ellipse id="ellipse54-7" class="st0" cx="-23.9" cy="134.9" rx="0.1" ry="0.1"/>
		<ellipse id="ellipse56-5" class="st0" cx="-23.9" cy="135.4" rx="0.1" ry="0.1"/>
	</g>
</g>
</svg>
